# xmcd
# 
# Track frame offsets:
#     150
#     23191
#     64129
#     96031
#     117033
#     154805
#     178701
#     204742
#     241068
#     274142
#     294448
# 
# Disc length: 4173
# 
# Revision: 1
# Processed by: cddbd v1.5.2PL0 Copyright (c) Steve Scherf et al.
# Submitted via: fre:ac v1.1beta1pre5
# 
DISCID=96104b0b
DTITLE=北村英治 - Vintage
DYEAR=2005
DGENRE=J-Jazz
TTITLE0=It's been a long long time
TTITLE1=Lover Come Back To Me　(恋人よ我に帰れ)
TTITLE2=A Nightingale sang in Berkeley square
TTITLE3=Georgia On My Mind (我が心のジョージア)
TTITLE4=Autumn Leaves (枯葉)
TTITLE5=Mathilda
TTITLE6=LOVE
TTITLE7=Old Ragged Cross (古い十字架)
TTITLE8=Someday Sweethart
TTITLE9=Memories of you
TTITLE10=Back home again in Indiana
EXTD=YEAR: 2003
EXTT0=
EXTT1=
EXTT2=
EXTT3=
EXTT4=
EXTT5=
EXTT6=
EXTT7=
EXTT8=
EXTT9=
EXTT10=
PLAYORDER=
